<?xml version="1.0" encoding="UTF-8" standalone="no"?>
<!-- Creator: CorelDRAW 2019 (64-Bit) -->

<svg
   xml:space="preserve"
   width="113.20509mm"
   height="45.178696mm"
   version="1.1"
   style="clip-rule:evenodd;fill-rule:evenodd;image-rendering:optimizeQuality;shape-rendering:geometricPrecision;text-rendering:geometricPrecision"
   viewBox="0 0 11320.508 4517.8696"
   id="svg1"
   sodipodi:docname="LOGO ATUT.svg"
   xmlns:inkscape="http://www.inkscape.org/namespaces/inkscape"
   xmlns:sodipodi="http://sodipodi.sourceforge.net/DTD/sodipodi-0.dtd"
   xmlns="http://www.w3.org/2000/svg"
   xmlns:svg="http://www.w3.org/2000/svg"><sodipodi:namedview
   id="namedview1"
   pagecolor="#ffffff"
   bordercolor="#000000"
   borderopacity="0.25"
   inkscape:showpageshadow="2"
   inkscape:pageopacity="0.0"
   inkscape:pagecheckerboard="0"
   inkscape:deskcolor="#d1d1d1"
   inkscape:document-units="mm"><inkscape:page
     x="-1.2187796e-11"
     y="0"
     width="11320.509"
     height="4517.8696"
     id="page2"
     margin="0"
     bleed="0" /></sodipodi:namedview>
 <defs
   id="defs1"><style
     type="text/css"
     id="style1">
   <![CDATA[
    .fil0 {fill:#FF0009}
   ]]>
  </style></defs>
 <g
   id="Warstwa_x0020_1"
   inkscape:label="Warstwa 1"
   inkscape:groupmode="layer"
   transform="translate(-4938.3379,-10024.279)">
  <metadata
   id="CorelCorpID_0Corel-Layer" />
  <path
   class="fil0"
   d="m 7195.8479,10024.279 h 1214.8 l 1213.38,2570.17 h -1184.69 z m -140.56,2570.17 h -1157.44 l 1270.74,-2541.48 536.41,1128.75 z m -2116.95,1947.7 423.11,-847.64 h 1186.12 l -395.86,847.64 z m 5646.6301,0 -424.54,-847.64 H 8975.7379 l 394.42,847.64 z m -932.2601,-2484.11 h 2710.7201 v 338.48 H 9793.2679 Z m 3274.3801,0 h 3331.76 v 338.48 h -3331.76 z m -2540.05,423.11 h 563.66 v 2061 l -563.66,-1130.18 z m 1411.3,0 v 1411.29 c 28.68,367.17 282.54,621.03 565.09,649.71 h 563.66 c 367.17,-28.68 565.1,-282.54 565.1,-649.71 v -1411.29 h -565.1 v 1411.29 c -55.93,282.55 -423.1,338.48 -563.66,0 v -1411.29 z m 2541.49,0 h 563.66 v 2061 h -563.66 z m -6695.4601,169.35 h 222.86 v 535.11 c 0,84.88 2.83,140.1 8.23,165.17 9.51,40.49 32.38,72.93 68.11,97.31 35.99,24.62 85.09,36.81 147.3,36.81 63.23,0 111.04,-11.5 143.18,-34.73 32.13,-23.01 51.4,-51.53 57.83,-85.13 6.68,-33.81 9.77,-89.71 9.77,-167.93 v -546.61 h 222.86 v 519 c 0,118.71 -5.91,202.45 -17.99,251.45 -12.08,49 -34.19,90.18 -66.58,124 -32.39,33.59 -75.83,60.5 -129.81,80.52 -54.24,20.01 -125.19,29.9 -212.58,29.9 -105.39,0 -185.33,-10.81 -239.83,-32.66 -54.49,-21.86 -97.42,-50.16 -129.04,-84.89 -31.62,-34.74 -52.44,-71.32 -62.46,-109.51 -14.66,-56.6 -21.85,-140.1 -21.85,-250.76 z m -1775.2,-0.12 -479.04,988.2 h 281.11 l 113.31,-226.61 h 395.85 l 84.62,226.61 h 282.55 l -424.54,-988.2 z m 113.3,282.55 -141.99,338.48 h 282.55 z m 2766.66,-282.55 v 169.24 h 338.49 v 818.96 h 226.61 v -818.96 h 423.1 l -84.62,-169.24 z m -1896.7,988.2 v -820.83 h -327.49 v -167.25 h 877.32 v 167.25 h -326.71 v 820.83 z"
   id="path1" />
 </g>
</svg>
